<?xml version="1.0" encoding="UTF-8" standalone="no"?>
<svg
   xmlns:dc="http://purl.org/dc/elements/1.1/"
   xmlns:cc="http://creativecommons.org/ns#"
   xmlns:rdf="http://www.w3.org/1999/02/22-rdf-syntax-ns#"
   xmlns:svg="http://www.w3.org/2000/svg"
   xmlns="http://www.w3.org/2000/svg"
   xmlns:sodipodi="http://sodipodi.sourceforge.net/DTD/sodipodi-0.dtd"
   xmlns:inkscape="http://www.inkscape.org/namespaces/inkscape"
   version="1.1"
   id="Layer_1"
   x="0px"
   y="0px"
   viewBox="0 0 516.56998 518.2614"
   xml:space="preserve"
   sodipodi:docname="dashed.svg"
   width="516.57001"
   height="518.26141"
   inkscape:version="1.0.2-2 (e86c870879, 2021-01-15)"><metadata
   id="metadata41"><rdf:RDF><cc:Work
       rdf:about=""><dc:format>image/svg+xml</dc:format><dc:type
         rdf:resource="http://purl.org/dc/dcmitype/StillImage" /></cc:Work></rdf:RDF></metadata><defs
   id="defs39" /><sodipodi:namedview
   pagecolor="#ffffff"
   bordercolor="#666666"
   borderopacity="1"
   objecttolerance="10"
   gridtolerance="10"
   guidetolerance="10"
   inkscape:pageopacity="0"
   inkscape:pageshadow="2"
   inkscape:window-width="1366"
   inkscape:window-height="745"
   id="namedview37"
   showgrid="false"
   inkscape:zoom="0.68655049"
   inkscape:cx="260.04001"
   inkscape:cy="261.02644"
   inkscape:window-x="-8"
   inkscape:window-y="-8"
   inkscape:window-maximized="1"
   inkscape:current-layer="g34" />
<g
   id="g34"
   transform="translate(-37.6,-159.91856)">
	<g
   id="g32">
		<path
   d="m 554.17,420.95 c -0.03,17.91 -1.9,35.82 -5.63,53.33 l -0.82,-0.17 c 3.67,-17.47 5.48,-35.32 5.45,-53.16 z"
   id="path2" />
		<path
   d="m 532.05,525.32 c -3.61,8.19 -7.65,16.21 -12.1,23.98 -4.45,7.78 -9.32,15.32 -14.54,22.6 l -1.24,-0.9 c 10.58,-14.35 19.62,-29.83 26.97,-46.09 z"
   id="path4" />
		<path
   d="m 469.73,612.08 c -13.24,12.13 -27.76,22.89 -43.26,32.02 l -1.61,-2.78 c 15.45,-8.77 29.99,-19.17 43.31,-30.97 z"
   id="path6" />
		<path
   d="m 377.39,666.41 c -17.1,5.67 -34.81,9.53 -52.74,11.5 l -0.48,-4.64 c 17.63,-1.72 35.09,-5.29 51.99,-10.66 z"
   id="path8" />
		<path
   d="m 270.6,678.18 c -17.97,-1.8 -35.76,-5.49 -52.97,-11.01 l 1.73,-5.33 c 16.8,5.52 34.18,9.27 51.78,11.16 z"
   id="path10" />
		<path
   d="m 168.1,645.31 c -15.69,-9 -30.44,-19.65 -43.93,-31.72 l 4.28,-4.75 c 13.07,11.87 27.39,22.37 42.65,31.28 z"
   id="path12" />
		<path
   d="M 87.73,573.44 C 77.02,558.83 67.83,543.1 60.39,526.57 l 6.58,-2.93 c 7.12,16.12 15.94,31.5 26.27,45.8 z"
   id="path14" />
		<path
   d="M 43.43,474.97 C 39.61,457.23 37.67,439.09 37.6,420.94 h 8 c -0.07,17.6 1.68,35.22 5.26,52.46 z"
   id="path16" />
		<path
   d="m 43.01,366.82 c 3.69,-17.8 9.26,-35.21 16.6,-51.86 l 8.15,3.63 C 60.54,334.6 55,351.38 51.29,368.57 Z"
   id="path18" />
		<path
   d="m 86.66,267.65 c 10.65,-14.77 22.81,-28.47 36.33,-40.69 l 6.68,7.41 c -13.04,11.71 -24.95,24.71 -35.34,38.86 z"
   id="path20" />
		<path
   d="m 167.04,194.72 c 7.88,-4.59 16,-8.76 24.32,-12.5 8.33,-3.71 16.86,-6.98 25.54,-9.79 l 3.21,9.88 c -8.33,2.71 -16.51,5.86 -24.5,9.43 -8,3.55 -15.83,7.51 -23.42,11.87 z"
   id="path22" />
		<path
   d="m 270.35,161.24 c 9.07,-0.91 18.18,-1.35 27.29,-1.32 9.11,0.06 18.21,0.59 27.27,1.59 l -1,9.6 c -8.73,-0.85 -17.5,-1.24 -26.27,-1.18 -8.77,0.03 -17.53,0.51 -26.24,1.44 z"
   id="path24" />
		<path
   d="m 378.14,173.22 c 8.62,2.9 17.08,6.25 25.33,10.04 8.24,3.81 16.27,8.07 24.05,12.73 l -3.69,6.37 c -7.69,-4.3 -15.61,-8.18 -23.69,-11.65 -8.07,-3.49 -16.32,-6.56 -24.71,-9.18 z"
   id="path26" />
		<path
   d="m 470.89,228.54 c 13.26,12.29 25.18,25.98 35.56,40.71 l -3.3,2.4 c -10.66,-14.18 -22.8,-27.2 -36.1,-38.84 z"
   id="path28" />
		<path
   d="m 532.79,316.26 c 3.58,8.24 6.72,16.67 9.41,25.23 1.34,4.28 2.57,8.6 3.69,12.94 1.12,4.34 2.1,8.72 3.01,13.11 l -1.55,0.33 c -0.94,-4.36 -2.04,-8.68 -3.22,-12.97 -1.19,-4.29 -2.5,-8.55 -3.91,-12.77 -2.83,-8.44 -6.11,-16.72 -9.81,-24.81 z"
   id="path30" />
	</g>
</g>
</svg>
