<svg id="svg" version="1.1" xmlns="http://www.w3.org/2000/svg" xmlns:xlink="http://www.w3.org/1999/xlink" width="400" height="205.4711246200608" viewBox="0, 0, 400,205.4711246200608"><g id="svgg"><path id="path0" d="M42.756 5.489 C 31.178 5.950,20.113 7.911,9.524 11.380 C 7.462 12.055,5.700 12.677,5.609 12.762 C 5.491 12.872,17.292 36.495,17.741 37.046 C 17.770 37.082,19.336 36.610,21.221 35.997 C 62.706 22.507,106.598 39.507,124.994 76.190 C 132.033 90.226,133.928 103.097,131.291 118.946 C 130.855 121.565,130.498 123.731,130.497 123.759 C 130.497 123.787,102.548 123.810,68.389 123.810 C 34.230 123.810,6.282 123.853,6.282 123.906 C 6.282 124.694,8.745 129.746,10.285 132.118 C 21.179 148.890,43.572 155.614,66.220 148.912 C 73.098 146.877,80.638 142.827,83.673 139.539 L 84.164 139.007 105.427 139.007 L 126.690 139.007 126.551 139.563 C 126.474 139.869,125.928 141.137,125.337 142.380 C 119.206 155.278,107.495 166.761,91.661 175.400 L 90.212 176.191 96.088 187.538 C 99.320 193.779,102.040 198.965,102.132 199.063 C 102.833 199.803,117.040 190.965,123.638 185.684 C 178.458 141.808,174.306 63.635,115.096 24.870 C 95.805 12.240,69.626 4.649,47.619 5.304 C 47.118 5.319,44.929 5.402,42.756 5.489 M44.328 65.556 C 29.172 67.390,15.360 75.697,8.583 87.053 C 7.664 88.594,5.876 92.328,5.876 92.708 C 5.876 92.762,25.618 92.806,49.747 92.806 C 73.875 92.806,93.616 92.738,93.614 92.655 C 93.608 92.335,91.615 88.377,90.681 86.829 C 81.666 71.891,62.950 63.302,44.328 65.556 M246.809 111.260 C 234.475 112.325,226.554 120.894,225.109 134.739 C 223.014 154.814,234.382 168.437,251.863 166.800 C 264.586 165.608,272.527 156.541,273.543 142.047 C 274.914 122.479,263.892 109.786,246.809 111.260 M312.122 111.256 C 307.566 111.706,302.190 114.057,297.720 117.557 L 296.454 118.548 296.454 115.606 L 296.454 112.665 292.097 112.665 L 287.741 112.665 287.741 139.108 L 287.741 165.552 292.096 165.552 L 296.452 165.552 296.504 145.649 L 296.555 125.745 298.566 124.388 C 309.111 117.269,319.757 117.927,322.108 125.842 C 322.912 128.549,322.991 130.563,322.995 148.379 L 322.999 165.552 327.468 165.552 L 331.938 165.552 331.863 146.555 C 331.783 126.100,331.781 126.061,330.684 122.481 C 328.255 114.555,321.301 110.350,312.122 111.256 M368.433 111.257 C 351.485 112.593,341.472 130.004,346.699 149.053 C 351.198 165.453,371.053 171.465,391.540 162.632 L 392.300 162.305 392.300 157.432 C 392.300 153.587,392.247 152.592,392.047 152.715 C 391.907 152.800,391.422 153.153,390.967 153.499 C 388.989 155.004,383.965 157.210,380.446 158.118 C 366.187 161.795,355.181 154.965,354.467 141.996 L 354.347 139.818 373.963 139.818 L 393.580 139.818 393.446 135.678 C 392.883 118.206,384.470 109.993,368.433 111.257 M194.529 111.845 C 185.403 113.510,178.642 119.393,175.790 128.149 C 173.780 134.319,173.739 143.607,175.692 149.981 C 180.477 165.595,197.094 170.995,215.447 162.900 L 217.014 162.209 217.017 157.283 C 217.020 153.396,216.968 152.389,216.768 152.508 C 216.629 152.590,215.831 153.131,214.995 153.709 C 202.602 162.280,189.197 160.382,184.985 149.460 C 182.482 142.970,182.756 133.192,185.605 127.340 C 190.356 117.580,202.965 116.159,214.633 124.069 C 215.668 124.770,216.629 125.415,216.768 125.501 C 216.968 125.624,217.021 124.616,217.021 120.710 L 217.021 115.762 215.220 114.937 C 208.511 111.863,200.769 110.706,194.529 111.845 M375.463 118.837 C 380.985 120.207,384.272 124.592,384.773 131.256 L 384.914 133.131 369.637 133.131 L 354.361 133.131 354.501 131.966 C 355.659 122.355,365.300 116.316,375.463 118.837 M253.351 119.138 C 260.936 121.078,264.515 127.444,264.521 139.007 C 264.528 152.394,259.281 159.372,249.240 159.331 C 239.984 159.293,234.806 153.283,234.055 141.705 C 233.246 129.220,237.229 121.102,245.114 119.164 C 247.354 118.614,251.254 118.602,253.351 119.138 " stroke="none" fill="#dc7434" fill-rule="evenodd"></path><path id="path1" d="M243.769 63.149 L 243.769 67.534 242.951 66.605 C 241.007 64.397,237.262 63.821,234.377 65.286 C 228.089 68.480,228.484 80.612,234.956 83.070 C 238.115 84.270,241.958 83.312,243.387 80.969 L 243.767 80.344 243.768 81.915 L 243.769 83.485 246.707 83.485 L 249.645 83.485 249.645 71.125 L 249.645 58.764 246.707 58.764 L 243.769 58.764 243.769 63.149 M183.429 64.642 C 182.211 64.898,180.610 65.816,179.918 66.655 L 179.331 67.367 179.331 66.004 L 179.331 64.640 176.393 64.640 L 173.455 64.640 173.455 74.063 L 173.455 83.485 176.382 83.485 L 179.308 83.485 179.370 77.761 C 179.449 70.508,179.700 69.911,182.732 69.746 C 185.876 69.574,186.221 70.365,186.221 77.758 L 186.221 83.485 189.147 83.485 L 192.074 83.485 192.136 77.862 C 192.217 70.591,192.503 69.909,195.538 69.743 C 198.678 69.572,199.069 70.439,199.155 77.761 L 199.222 83.485 202.055 83.485 L 204.888 83.485 204.825 76.646 L 204.762 69.807 204.173 68.533 C 202.055 63.944,195.738 63.081,192.205 66.898 C 191.261 67.917,191.093 68.026,190.986 67.689 C 190.362 65.724,186.222 64.054,183.429 64.642 M213.678 64.710 C 208.399 66.082,205.886 73.335,208.656 79.207 C 210.808 83.770,217.038 85.116,220.409 81.745 L 221.479 80.675 221.479 82.080 L 221.479 83.485 224.417 83.485 L 227.356 83.485 227.356 74.063 L 227.356 64.640 224.417 64.640 L 221.479 64.640 221.479 66.087 L 221.479 67.534 220.661 66.605 C 219.091 64.821,216.234 64.045,213.678 64.710 M258.460 64.710 C 253.181 66.082,250.669 73.335,253.438 79.207 C 255.591 83.770,261.820 85.116,265.191 81.745 L 266.261 80.675 266.261 82.080 L 266.261 83.485 269.200 83.485 L 272.138 83.485 272.138 74.063 L 272.138 64.640 269.200 64.640 L 266.261 64.640 266.261 66.087 L 266.261 67.534 265.444 66.605 C 263.873 64.821,261.016 64.045,258.460 64.710 M280.952 64.710 C 275.673 66.082,273.161 73.335,275.931 79.207 C 278.092 83.790,284.313 85.116,287.711 81.718 L 288.808 80.620 288.714 82.735 C 288.608 85.111,288.297 85.898,287.158 86.666 C 285.305 87.914,281.978 87.145,281.531 85.365 C 281.367 84.713,275.583 84.628,275.583 85.277 C 275.583 91.809,287.392 95.060,292.194 89.850 C 294.440 87.414,294.614 86.290,294.623 74.215 L 294.630 64.640 291.692 64.640 L 288.754 64.640 288.754 66.087 L 288.754 67.534 287.936 66.605 C 286.365 64.821,283.508 64.045,280.952 64.710 M303.445 64.710 C 298.166 66.082,295.653 73.335,298.423 79.207 C 300.575 83.770,306.805 85.116,310.176 81.745 L 311.246 80.675 311.246 82.080 L 311.246 83.485 314.184 83.485 L 317.123 83.485 317.123 74.063 L 317.123 64.640 314.184 64.640 L 311.246 64.640 311.246 66.087 L 311.246 67.534 310.428 66.605 C 308.858 64.821,306.001 64.045,303.445 64.710 M324.856 64.749 C 321.787 65.415,320.162 67.317,320.162 70.244 C 320.162 73.391,321.308 74.377,326.570 75.762 C 330.313 76.747,331.204 77.452,330.341 78.744 C 329.376 80.189,325.633 79.105,325.633 77.379 C 325.633 77.028,325.430 77.001,322.796 77.001 C 319.528 77.001,319.631 76.917,320.398 78.968 C 322.948 85.785,335.986 84.995,335.963 78.025 C 335.953 74.889,334.452 73.535,329.636 72.315 C 325.461 71.258,324.592 70.526,325.928 69.190 C 326.985 68.133,329.119 68.753,329.990 70.370 L 330.395 71.124 333.096 71.124 L 335.797 71.125 335.665 70.466 C 334.779 66.069,330.122 63.606,324.856 64.749 M345.795 64.566 C 335.423 66.169,335.423 81.850,345.795 83.490 C 350.991 84.311,356.636 80.513,356.636 76.197 C 356.636 76.062,355.531 75.988,353.536 75.988 L 350.436 75.988 350.182 76.691 C 349.658 78.138,347.884 78.895,346.369 78.316 C 343.040 77.044,343.361 70.265,346.782 69.623 C 348.299 69.339,349.934 70.286,350.275 71.647 L 350.399 72.138 353.517 72.138 C 355.233 72.138,356.636 72.056,356.636 71.957 C 356.636 67.645,350.952 63.769,345.795 64.566 M364.438 64.710 C 359.159 66.082,356.646 73.335,359.416 79.207 C 361.568 83.770,367.798 85.116,371.169 81.745 L 372.239 80.675 372.239 82.080 L 372.239 83.485 375.177 83.485 L 378.116 83.485 378.116 74.063 L 378.116 64.640 375.177 64.640 L 372.239 64.640 372.239 66.087 L 372.239 67.534 371.421 66.605 C 369.851 64.821,366.994 64.045,364.438 64.710 M392.300 64.719 C 390.817 65.048,390.005 65.501,388.715 66.721 L 387.639 67.739 387.639 66.189 L 387.639 64.640 384.701 64.640 L 381.763 64.640 381.763 74.063 L 381.763 83.485 384.701 83.485 L 387.639 83.485 387.639 78.754 C 387.639 71.870,388.100 71.074,392.249 70.778 L 393.921 70.659 393.921 67.548 C 393.921 65.186,393.860 64.442,393.668 64.455 C 393.528 64.464,392.913 64.583,392.300 64.719 M219.247 70.110 C 220.759 70.881,221.666 72.799,221.408 74.680 C 220.672 80.047,213.576 79.484,213.576 74.059 C 213.576 70.746,216.501 68.709,219.247 70.110 M241.536 70.110 C 243.049 70.881,243.956 72.799,243.698 74.680 C 242.962 80.047,235.866 79.484,235.866 74.059 C 235.866 70.746,238.791 68.709,241.536 70.110 M264.029 70.110 C 265.541 70.881,266.448 72.799,266.190 74.680 C 265.455 80.047,258.359 79.484,258.359 74.059 C 258.359 70.746,261.283 68.709,264.029 70.110 M286.521 70.110 C 288.034 70.881,288.940 72.799,288.683 74.680 C 287.947 80.047,280.851 79.484,280.851 74.059 C 280.851 70.746,283.775 68.709,286.521 70.110 M309.014 70.110 C 310.526 70.881,311.433 72.799,311.175 74.680 C 310.439 80.047,303.343 79.484,303.343 74.059 C 303.343 70.746,306.268 68.709,309.014 70.110 M370.006 70.110 C 371.519 70.881,372.426 72.799,372.168 74.680 C 371.432 80.047,364.336 79.484,364.336 74.059 C 364.336 70.746,367.261 68.709,370.006 70.110 M173.860 99.088 L 173.860 102.128 283.789 102.128 L 393.718 102.128 393.718 99.088 L 393.718 96.049 283.789 96.049 L 173.860 96.049 173.860 99.088 " stroke="none" fill="#9c9c9b" fill-rule="evenodd"></path><path id="path2" d="M42.604 5.417 C 43.133 5.459,43.999 5.459,44.529 5.417 C 45.058 5.376,44.625 5.342,43.566 5.342 C 42.508 5.342,42.074 5.376,42.604 5.417 M52.336 5.418 C 52.869 5.460,53.690 5.459,54.160 5.417 C 54.630 5.374,54.195 5.340,53.191 5.340 C 52.188 5.341,51.804 5.376,52.336 5.418 M38.959 5.617 C 39.267 5.663,39.723 5.662,39.972 5.614 C 40.222 5.566,39.970 5.528,39.412 5.529 C 38.855 5.531,38.651 5.570,38.959 5.617 M56.586 5.616 C 56.892 5.663,57.394 5.663,57.700 5.616 C 58.007 5.570,57.756 5.532,57.143 5.532 C 56.530 5.532,56.279 5.570,56.586 5.616 M36.221 5.817 C 36.472 5.865,36.882 5.865,37.133 5.817 C 37.383 5.768,37.178 5.729,36.677 5.729 C 36.175 5.729,35.970 5.768,36.221 5.817 M59.321 5.817 C 59.572 5.865,59.982 5.865,60.233 5.817 C 60.484 5.768,60.279 5.729,59.777 5.729 C 59.276 5.729,59.070 5.768,59.321 5.817 M34.197 6.020 C 34.449 6.068,34.814 6.066,35.007 6.016 C 35.201 5.965,34.995 5.925,34.549 5.927 C 34.103 5.930,33.945 5.971,34.197 6.020 M61.553 6.020 C 61.805 6.068,62.169 6.066,62.363 6.016 C 62.557 5.965,62.351 5.925,61.905 5.927 C 61.459 5.930,61.300 5.971,61.553 6.020 M5.268 12.776 C 5.268 13.043,5.852 14.184,5.988 14.184 C 6.044 14.184,5.947 13.908,5.772 13.571 C 5.597 13.233,5.509 12.868,5.576 12.760 C 5.643 12.652,5.601 12.563,5.483 12.563 C 5.365 12.563,5.268 12.659,5.268 12.776 M101.114 17.021 C 101.505 17.235,101.915 17.410,102.026 17.410 C 102.138 17.410,101.910 17.235,101.520 17.021 C 101.130 16.808,100.719 16.633,100.608 16.633 C 100.496 16.633,100.724 16.808,101.114 17.021 M104.762 18.735 C 104.762 18.791,105.127 19.023,105.572 19.250 C 106.018 19.478,106.383 19.618,106.383 19.562 C 106.383 19.507,106.018 19.275,105.572 19.048 C 105.127 18.820,104.762 18.680,104.762 18.735 M10.841 23.911 C 11.456 25.137,12.004 26.140,12.060 26.140 C 12.116 26.140,11.658 25.137,11.044 23.911 C 10.429 22.685,9.880 21.682,9.824 21.682 C 9.769 21.682,10.226 22.685,10.841 23.911 M48.075 31.560 C 49.384 31.595,51.527 31.595,52.837 31.560 C 54.146 31.524,53.075 31.495,50.456 31.495 C 47.837 31.495,46.765 31.524,48.075 31.560 M43.215 31.756 C 43.523 31.803,43.978 31.802,44.228 31.754 C 44.477 31.705,44.225 31.667,43.668 31.669 C 43.110 31.670,42.907 31.710,43.215 31.756 M56.588 31.756 C 56.896 31.803,57.352 31.802,57.602 31.754 C 57.851 31.705,57.599 31.667,57.042 31.669 C 56.484 31.670,56.280 31.710,56.588 31.756 M40.884 31.957 C 41.136 32.005,41.501 32.004,41.694 31.953 C 41.888 31.902,41.682 31.862,41.236 31.865 C 40.790 31.867,40.632 31.908,40.884 31.957 M59.017 31.953 C 59.212 32.004,59.531 32.004,59.726 31.953 C 59.921 31.902,59.762 31.861,59.372 31.861 C 58.982 31.861,58.822 31.902,59.017 31.953 M38.956 32.156 C 39.151 32.207,39.471 32.207,39.666 32.156 C 39.861 32.105,39.701 32.063,39.311 32.063 C 38.921 32.063,38.761 32.105,38.956 32.156 M60.841 32.156 C 61.036 32.207,61.355 32.207,61.550 32.156 C 61.745 32.105,61.586 32.063,61.196 32.063 C 60.805 32.063,60.646 32.105,60.841 32.156 M16.708 35.442 C 17.365 36.751,17.735 37.278,17.986 37.261 C 18.274 37.242,18.280 37.222,18.021 37.152 C 17.846 37.105,17.345 36.332,16.907 35.434 C 16.469 34.537,16.037 33.757,15.947 33.701 C 15.856 33.645,16.199 34.428,16.708 35.442 M127.254 33.903 C 127.254 33.938,127.551 34.235,127.913 34.562 L 128.571 35.157 127.976 34.498 C 127.422 33.885,127.254 33.747,127.254 33.903 M129.990 36.474 C 130.652 37.143,131.239 37.690,131.294 37.690 C 131.350 37.690,130.854 37.143,130.193 36.474 C 129.531 35.805,128.944 35.258,128.888 35.258 C 128.832 35.258,129.328 35.805,129.990 36.474 M132.320 38.564 C 132.320 38.599,132.617 38.895,132.979 39.222 L 133.637 39.818 133.042 39.159 C 132.487 38.545,132.320 38.407,132.320 38.564 M87.758 39.995 C 87.965 40.183,89.564 40.930,89.564 40.839 C 89.564 40.724,88.035 39.919,87.816 39.919 C 87.738 39.919,87.711 39.953,87.758 39.995 M135.664 42.148 C 136.212 42.705,136.707 43.161,136.763 43.161 C 136.819 43.161,136.415 42.705,135.866 42.148 C 135.317 41.591,134.823 41.135,134.767 41.135 C 134.711 41.135,135.115 41.591,135.664 42.148 M137.589 44.276 C 137.967 44.666,138.322 44.985,138.377 44.985 C 138.433 44.985,138.169 44.666,137.791 44.276 C 137.413 43.886,137.058 43.566,137.003 43.566 C 136.947 43.566,137.211 43.886,137.589 44.276 M138.399 45.251 C 138.399 45.286,138.696 45.582,139.058 45.909 L 139.716 46.505 139.121 45.846 C 138.566 45.232,138.399 45.094,138.399 45.251 M105.775 51.735 C 105.775 51.770,106.071 52.066,106.434 52.394 L 107.092 52.989 106.497 52.330 C 105.942 51.716,105.775 51.579,105.775 51.735 M110.132 55.927 C 111.689 57.487,113.009 58.764,113.064 58.764 C 113.120 58.764,111.892 57.487,110.334 55.927 C 108.777 54.367,107.457 53.090,107.402 53.090 C 107.346 53.090,108.574 54.367,110.132 55.927 M113.880 59.878 C 114.259 60.268,114.613 60.588,114.669 60.588 C 114.725 60.588,114.461 60.268,114.083 59.878 C 113.705 59.488,113.350 59.169,113.294 59.169 C 113.239 59.169,113.502 59.488,113.880 59.878 M152.222 65.949 C 152.801 67.115,153.308 68.036,153.347 67.997 C 153.437 67.907,151.400 63.830,151.266 63.830 C 151.212 63.830,151.642 64.784,152.222 65.949 M118.338 65.451 C 118.576 65.785,118.817 66.059,118.873 66.059 C 118.928 66.059,118.779 65.785,118.541 65.451 C 118.303 65.117,118.063 64.843,118.007 64.843 C 117.951 64.843,118.100 65.117,118.338 65.451 M48.692 65.196 C 49.561 65.234,50.929 65.234,51.732 65.196 C 52.535 65.158,51.824 65.126,50.152 65.127 C 48.480 65.127,47.823 65.158,48.692 65.196 M45.139 65.392 C 45.391 65.440,45.756 65.438,45.950 65.387 C 46.143 65.337,45.937 65.297,45.491 65.299 C 45.046 65.302,44.887 65.343,45.139 65.392 M54.663 65.392 C 54.915 65.440,55.280 65.438,55.473 65.387 C 55.667 65.337,55.461 65.297,55.015 65.299 C 54.569 65.302,54.411 65.343,54.663 65.392 M120.079 67.933 C 120.491 68.574,120.865 69.098,120.911 69.098 C 121.047 69.098,120.314 67.924,119.803 67.322 C 119.544 67.017,119.668 67.292,120.079 67.933 M70.517 69.402 C 70.795 69.562,71.114 69.692,71.226 69.692 C 71.337 69.692,71.201 69.562,70.922 69.402 C 70.643 69.243,70.324 69.113,70.213 69.113 C 70.101 69.113,70.238 69.243,70.517 69.402 M26.697 70.631 C 25.945 71.017,25.329 71.378,25.329 71.434 C 25.329 71.524,28.146 70.176,28.352 69.986 C 28.629 69.732,27.881 70.023,26.697 70.631 M123.708 73.961 C 123.881 74.296,124.068 74.569,124.124 74.569 C 124.180 74.569,124.084 74.296,123.911 73.961 C 123.738 73.627,123.551 73.354,123.495 73.354 C 123.439 73.354,123.535 73.627,123.708 73.961 M84.296 78.723 C 85.350 79.782,86.258 80.648,86.314 80.648 C 86.370 80.648,85.553 79.782,84.498 78.723 C 83.444 77.665,82.536 76.798,82.480 76.798 C 82.424 76.798,83.241 77.665,84.296 78.723 M16.299 77.660 L 15.704 78.318 16.363 77.723 C 16.725 77.396,17.021 77.099,17.021 77.064 C 17.021 76.908,16.854 77.046,16.299 77.660 M125.648 77.710 C 125.648 77.822,125.778 78.141,125.937 78.419 C 126.096 78.698,126.227 78.835,126.227 78.723 C 126.227 78.612,126.096 78.293,125.937 78.014 C 125.778 77.736,125.648 77.599,125.648 77.710 M14.184 79.534 C 13.692 80.035,13.335 80.446,13.391 80.446 C 13.447 80.446,13.895 80.035,14.387 79.534 C 14.879 79.032,15.236 78.622,15.181 78.622 C 15.125 78.622,14.677 79.032,14.184 79.534 M12.449 81.510 L 11.854 82.168 12.513 81.573 C 12.875 81.246,13.171 80.949,13.171 80.914 C 13.171 80.758,13.004 80.896,12.449 81.510 M7.285 88.976 C 7.052 89.433,6.896 89.841,6.939 89.883 C 6.981 89.926,7.214 89.552,7.457 89.053 C 8.009 87.917,7.860 87.850,7.285 88.976 M92.241 89.659 C 92.596 90.380,92.920 90.936,92.961 90.895 C 93.052 90.805,91.827 88.349,91.691 88.349 C 91.638 88.349,91.885 88.938,92.241 89.659 M5.674 92.857 C 5.674 92.941,25.507 93.009,49.747 93.009 C 73.987 93.009,93.820 92.941,93.820 92.857 C 93.820 92.774,73.987 92.705,49.747 92.705 C 25.507 92.705,5.674 92.774,5.674 92.857 M161.547 96.049 C 161.547 96.439,161.588 96.598,161.639 96.403 C 161.690 96.208,161.690 95.889,161.639 95.694 C 161.588 95.499,161.547 95.659,161.547 96.049 M161.749 97.670 C 161.749 98.060,161.791 98.219,161.842 98.024 C 161.893 97.829,161.893 97.510,161.842 97.315 C 161.791 97.120,161.749 97.280,161.749 97.670 M161.952 99.696 C 161.952 100.086,161.993 100.246,162.044 100.051 C 162.095 99.856,162.095 99.536,162.044 99.341 C 161.993 99.146,161.952 99.306,161.952 99.696 M132.173 101.722 C 132.173 102.224,132.212 102.429,132.261 102.178 C 132.309 101.928,132.309 101.517,132.261 101.266 C 132.212 101.016,132.173 101.221,132.173 101.722 M162.168 102.330 C 162.168 102.943,162.206 103.194,162.253 102.888 C 162.299 102.581,162.299 102.080,162.253 101.773 C 162.206 101.467,162.168 101.717,162.168 102.330 M132.404 106.890 C 132.404 108.896,132.434 109.689,132.471 108.652 C 132.508 107.616,132.508 105.974,132.471 105.005 C 132.434 104.035,132.404 104.883,132.404 106.890 M162.394 108.511 C 162.394 110.517,162.424 111.310,162.461 110.273 C 162.498 109.237,162.498 107.596,162.461 106.626 C 162.424 105.656,162.394 106.505,162.394 108.511 M246.555 111.187 C 246.806 111.235,247.216 111.235,247.467 111.187 C 247.718 111.138,247.513 111.099,247.011 111.099 C 246.510 111.099,246.304 111.138,246.555 111.187 M251.216 111.187 C 251.467 111.235,251.877 111.235,252.128 111.187 C 252.378 111.138,252.173 111.099,251.672 111.099 C 251.170 111.099,250.965 111.138,251.216 111.187 M312.008 111.187 C 312.261 111.235,312.625 111.234,312.819 111.183 C 313.013 111.132,312.806 111.092,312.361 111.095 C 311.915 111.097,311.756 111.138,312.008 111.187 M315.960 111.189 C 316.268 111.236,316.724 111.234,316.973 111.186 C 317.223 111.138,316.971 111.100,316.413 111.102 C 315.856 111.103,315.652 111.142,315.960 111.189 M368.240 111.189 C 368.548 111.236,369.004 111.234,369.253 111.186 C 369.502 111.138,369.250 111.100,368.693 111.102 C 368.136 111.103,367.932 111.142,368.240 111.189 M373.103 111.189 C 373.411 111.236,373.867 111.234,374.116 111.186 C 374.365 111.138,374.113 111.100,373.556 111.102 C 372.999 111.103,372.795 111.142,373.103 111.189 M198.641 111.397 C 199.510 111.435,200.878 111.435,201.681 111.396 C 202.484 111.358,201.773 111.327,200.101 111.327 C 198.430 111.328,197.773 111.359,198.641 111.397 M132.165 112.057 C 132.165 112.447,132.206 112.606,132.257 112.411 C 132.308 112.216,132.308 111.897,132.257 111.702 C 132.206 111.507,132.165 111.667,132.165 112.057 M287.588 139.058 L 287.638 165.653 287.690 139.159 L 287.742 112.665 292.098 112.665 L 296.454 112.665 296.454 115.502 C 296.454 118.309,296.547 118.673,297.088 117.984 C 297.340 117.662,297.333 117.655,297.011 117.907 C 296.677 118.169,296.657 118.020,296.657 115.324 L 296.657 112.462 292.097 112.462 L 287.538 112.462 287.588 139.058 M304.559 113.171 C 304.281 113.331,304.144 113.461,304.255 113.461 C 304.367 113.461,304.686 113.331,304.965 113.171 C 305.243 113.012,305.380 112.882,305.268 112.882 C 305.157 112.882,304.838 113.012,304.559 113.171 M381.375 112.944 C 381.581 113.133,383.587 114.079,383.587 113.989 C 383.587 113.874,381.651 112.867,381.432 112.867 C 381.354 112.867,381.328 112.902,381.375 112.944 M162.168 114.488 C 162.168 115.101,162.206 115.352,162.253 115.046 C 162.299 114.739,162.299 114.238,162.253 113.931 C 162.206 113.625,162.168 113.875,162.168 114.488 M187.386 113.995 C 186.857 114.271,186.424 114.541,186.424 114.597 C 186.424 114.687,188.430 113.740,188.636 113.552 C 188.886 113.323,188.227 113.557,187.386 113.995 M217.021 120.628 L 217.122 125.735 217.177 120.784 C 217.207 118.061,217.161 115.763,217.076 115.677 C 216.990 115.591,216.965 117.819,217.021 120.628 M387.133 116.920 C 387.907 117.700,388.586 118.338,388.642 118.338 C 388.697 118.338,388.110 117.700,387.335 116.920 C 386.561 116.140,385.882 115.502,385.826 115.502 C 385.771 115.502,386.359 116.140,387.133 116.920 M265.957 117.528 C 266.732 118.308,267.411 118.946,267.466 118.946 C 267.522 118.946,266.934 118.308,266.160 117.528 C 265.386 116.748,264.707 116.109,264.651 116.109 C 264.595 116.109,265.183 116.748,265.957 117.528 M161.956 117.021 C 161.958 117.467,162.000 117.626,162.048 117.374 C 162.097 117.121,162.095 116.757,162.044 116.563 C 161.993 116.369,161.954 116.575,161.956 117.021 M232.314 117.579 L 231.104 118.845 232.371 117.636 C 233.547 116.512,233.730 116.312,233.580 116.312 C 233.549 116.312,232.979 116.882,232.314 117.579 M352.983 118.085 L 351.672 119.453 353.040 118.142 C 353.792 117.420,354.407 116.805,354.407 116.774 C 354.407 116.625,354.201 116.815,352.983 118.085 M181.351 118.490 L 180.243 119.656 181.408 118.548 C 182.491 117.519,182.666 117.325,182.516 117.325 C 182.484 117.325,181.960 117.850,181.351 118.490 M161.749 118.946 C 161.749 119.336,161.791 119.496,161.842 119.301 C 161.893 119.106,161.893 118.787,161.842 118.592 C 161.791 118.397,161.749 118.556,161.749 118.946 M369.663 118.488 C 370.308 118.529,371.311 118.528,371.892 118.488 C 372.473 118.447,371.945 118.414,370.719 118.414 C 369.493 118.415,369.018 118.448,369.663 118.488 M247.165 118.887 C 247.418 118.935,247.782 118.934,247.976 118.883 C 248.170 118.832,247.964 118.793,247.518 118.795 C 247.072 118.797,246.913 118.839,247.165 118.887 M250.813 118.887 C 251.065 118.935,251.430 118.934,251.623 118.883 C 251.817 118.832,251.611 118.793,251.165 118.795 C 250.719 118.797,250.561 118.839,250.813 118.887 M198.740 119.096 C 199.329 119.137,200.241 119.137,200.767 119.095 C 201.292 119.053,200.811 119.020,199.696 119.020 C 198.582 119.021,198.151 119.055,198.740 119.096 M309.676 119.694 C 309.871 119.745,310.190 119.745,310.385 119.694 C 310.580 119.643,310.420 119.601,310.030 119.601 C 309.640 119.601,309.481 119.643,309.676 119.694 M313.427 119.698 C 313.679 119.746,314.044 119.744,314.237 119.693 C 314.431 119.643,314.225 119.603,313.779 119.605 C 313.333 119.608,313.175 119.649,313.427 119.698 M380.851 121.986 C 381.400 122.543,381.895 122.999,381.950 122.999 C 382.006 122.999,381.603 122.543,381.054 121.986 C 380.505 121.429,380.010 120.973,379.954 120.973 C 379.899 120.973,380.302 121.429,380.851 121.986 M209.338 121.253 C 209.544 121.442,211.955 122.589,211.955 122.498 C 211.955 122.385,209.614 121.175,209.394 121.175 C 209.317 121.175,209.292 121.210,209.338 121.253 M259.372 122.695 C 260.090 123.419,260.723 124.012,260.779 124.012 C 260.834 124.012,260.292 123.419,259.574 122.695 C 258.856 121.971,258.223 121.378,258.168 121.378 C 258.112 121.378,258.654 121.971,259.372 122.695 M319.858 122.188 C 320.293 122.634,320.695 122.999,320.751 122.999 C 320.807 122.999,320.496 122.634,320.061 122.188 C 319.625 121.743,319.224 121.378,319.168 121.378 C 319.112 121.378,319.423 121.743,319.858 122.188 M238.899 122.746 L 237.791 123.911 238.956 122.803 C 240.039 121.774,240.214 121.581,240.064 121.581 C 240.032 121.581,239.508 122.105,238.899 122.746 M359.068 122.695 C 358.576 123.197,358.219 123.607,358.274 123.607 C 358.330 123.607,358.778 123.197,359.271 122.695 C 359.763 122.194,360.120 121.783,360.064 121.783 C 360.008 121.783,359.560 122.194,359.068 122.695 M188.443 123.354 L 187.335 124.519 188.501 123.411 C 189.583 122.382,189.758 122.188,189.608 122.188 C 189.576 122.188,189.052 122.713,188.443 123.354 M270.455 123.706 C 270.640 124.094,270.828 124.376,270.872 124.332 C 270.965 124.240,270.349 122.999,270.211 122.999 C 270.160 122.999,270.270 123.317,270.455 123.706 M68.237 123.556 C 9.208 123.605,6.080 123.625,6.095 123.962 C 6.105 124.174,6.152 124.214,6.213 124.063 C 6.295 123.861,18.923 123.810,68.406 123.810 C 109.665 123.810,130.496 123.742,130.496 123.607 C 130.496 123.495,130.474 123.427,130.446 123.455 C 130.418 123.482,102.424 123.528,68.237 123.556 M296.547 125.887 C 296.494 126.026,296.474 135.030,296.503 145.897 L 296.555 165.653 296.657 145.643 C 296.712 134.638,296.732 125.633,296.701 125.633 C 296.669 125.633,296.600 125.747,296.547 125.887 M7.309 126.950 C 7.309 127.062,7.440 127.381,7.599 127.660 C 7.758 127.938,7.888 128.075,7.888 127.964 C 7.888 127.852,7.758 127.533,7.599 127.254 C 7.440 126.976,7.309 126.839,7.309 126.950 M331.770 128.369 C 331.772 128.926,331.811 129.130,331.858 128.822 C 331.904 128.514,331.903 128.058,331.855 127.809 C 331.807 127.560,331.769 127.812,331.770 128.369 M8.612 129.686 C 8.785 130.020,8.972 130.294,9.028 130.294 C 9.083 130.294,8.987 130.020,8.815 129.686 C 8.642 129.352,8.455 129.078,8.399 129.078 C 8.343 129.078,8.439 129.352,8.612 129.686 M384.651 131.003 C 384.653 131.449,384.695 131.607,384.743 131.355 C 384.792 131.103,384.790 130.738,384.739 130.545 C 384.688 130.351,384.649 130.557,384.651 131.003 M322.859 132.219 C 322.860 132.888,322.898 133.137,322.943 132.772 C 322.988 132.408,322.987 131.861,322.941 131.557 C 322.895 131.252,322.858 131.550,322.859 132.219 M393.376 132.421 C 393.377 133.090,393.415 133.339,393.460 132.975 C 393.505 132.611,393.504 132.064,393.458 131.759 C 393.412 131.455,393.375 131.753,393.376 132.421 M354.454 132.523 C 354.454 132.913,354.496 133.072,354.547 132.877 C 354.598 132.682,354.598 132.363,354.547 132.168 C 354.496 131.973,354.454 132.133,354.454 132.523 M273.401 133.739 C 273.401 134.129,273.442 134.288,273.493 134.093 C 273.544 133.898,273.544 133.579,273.493 133.384 C 273.442 133.189,273.401 133.349,273.401 133.739 M174.312 134.347 C 174.312 134.737,174.354 134.896,174.405 134.701 C 174.456 134.506,174.456 134.187,174.405 133.992 C 174.354 133.797,174.312 133.956,174.312 134.347 M224.975 134.650 C 224.977 135.096,225.019 135.255,225.067 135.003 C 225.116 134.751,225.114 134.386,225.063 134.192 C 225.013 133.998,224.973 134.205,224.975 134.650 M264.282 134.752 C 264.282 135.142,264.324 135.301,264.375 135.106 C 264.426 134.911,264.426 134.592,264.375 134.397 C 264.324 134.202,264.282 134.362,264.282 134.752 M345.538 134.954 C 345.538 135.344,345.580 135.504,345.631 135.309 C 345.682 135.114,345.682 134.795,345.631 134.600 C 345.580 134.405,345.538 134.564,345.538 134.954 M234.101 135.866 C 234.102 136.424,234.141 136.627,234.188 136.319 C 234.235 136.011,234.233 135.555,234.185 135.306 C 234.137 135.057,234.099 135.309,234.101 135.866 M183.439 135.968 C 183.439 136.469,183.479 136.674,183.527 136.424 C 183.575 136.173,183.575 135.762,183.527 135.512 C 183.479 135.261,183.439 135.466,183.439 135.968 M273.617 136.170 C 273.617 136.783,273.655 137.034,273.701 136.727 C 273.748 136.421,273.748 135.919,273.701 135.613 C 273.655 135.306,273.617 135.557,273.617 136.170 M174.135 137.285 C 174.134 138.288,174.168 138.724,174.211 138.253 C 174.253 137.783,174.254 136.962,174.212 136.430 C 174.170 135.897,174.135 136.282,174.135 137.285 M224.802 139.007 C 224.802 140.623,224.833 141.284,224.872 140.476 C 224.910 139.668,224.910 138.346,224.872 137.538 C 224.833 136.730,224.802 137.391,224.802 139.007 M264.517 139.007 C 264.517 140.512,264.549 141.127,264.588 140.375 C 264.627 139.623,264.627 138.392,264.588 137.639 C 264.549 136.887,264.517 137.503,264.517 139.007 M345.369 139.311 C 345.369 140.871,345.401 141.483,345.439 140.670 C 345.478 139.857,345.478 138.580,345.439 137.833 C 345.400 137.086,345.368 137.751,345.369 139.311 M13.982 137.239 C 13.982 137.270,14.688 137.976,15.552 138.810 L 17.123 140.324 15.608 138.754 C 14.201 137.295,13.982 137.091,13.982 137.239 M83.274 139.970 L 82.371 140.932 83.290 140.071 L 84.210 139.210 105.310 139.210 C 122.000 139.210,126.431 139.263,126.512 139.463 C 126.573 139.614,126.621 139.574,126.630 139.362 C 126.646 139.026,125.506 139.007,105.412 139.007 L 84.178 139.007 83.274 139.970 M174.135 140.932 C 174.134 141.935,174.168 142.371,174.211 141.901 C 174.253 141.430,174.254 140.610,174.212 140.077 C 174.170 139.544,174.135 139.929,174.135 140.932 M354.448 141.388 L 354.488 142.958 354.558 141.490 L 354.628 140.022 374.122 139.970 L 393.617 139.917 374.012 139.867 L 354.407 139.818 354.448 141.388 M273.617 142.047 C 273.617 142.660,273.655 142.910,273.701 142.604 C 273.748 142.297,273.748 141.796,273.701 141.489 C 273.655 141.183,273.617 141.434,273.617 142.047 M183.442 142.148 C 183.443 142.705,183.483 142.909,183.529 142.601 C 183.576 142.293,183.575 141.837,183.527 141.588 C 183.479 141.339,183.440 141.591,183.442 142.148 M234.101 142.148 C 234.102 142.705,234.141 142.909,234.188 142.601 C 234.235 142.293,234.233 141.837,234.185 141.588 C 234.137 141.339,234.099 141.591,234.101 142.148 M124.662 143.370 C 124.307 144.091,124.059 144.681,124.112 144.681 C 124.248 144.681,125.473 142.225,125.383 142.134 C 125.342 142.093,125.018 142.649,124.662 143.370 M264.282 143.262 C 264.282 143.652,264.324 143.812,264.375 143.617 C 264.426 143.422,264.426 143.103,264.375 142.908 C 264.324 142.713,264.282 142.872,264.282 143.262 M224.975 143.566 C 224.977 144.012,225.019 144.171,225.067 143.919 C 225.116 143.667,225.114 143.302,225.063 143.108 C 225.013 142.914,224.973 143.121,224.975 143.566 M345.538 143.668 C 345.538 144.058,345.580 144.217,345.631 144.022 C 345.682 143.827,345.682 143.508,345.631 143.313 C 345.580 143.118,345.538 143.278,345.538 143.668 M174.312 144.073 C 174.312 144.463,174.354 144.623,174.405 144.428 C 174.456 144.233,174.456 143.913,174.405 143.718 C 174.354 143.523,174.312 143.683,174.312 144.073 M75.177 145.390 C 74.676 145.659,74.337 145.882,74.425 145.888 C 74.641 145.900,76.190 145.104,76.190 144.981 C 76.190 144.846,76.199 144.843,75.177 145.390 M119.959 151.165 C 119.721 151.499,119.572 151.773,119.628 151.773 C 119.684 151.773,119.924 151.499,120.162 151.165 C 120.400 150.831,120.549 150.557,120.494 150.557 C 120.438 150.557,120.198 150.831,119.959 151.165 M42.401 151.305 C 42.596 151.356,42.915 151.356,43.110 151.305 C 43.305 151.254,43.146 151.212,42.756 151.212 C 42.366 151.212,42.206 151.254,42.401 151.305 M54.357 151.305 C 54.552 151.356,54.871 151.356,55.066 151.305 C 55.261 151.254,55.101 151.212,54.711 151.212 C 54.321 151.212,54.162 151.254,54.357 151.305 M44.630 151.513 C 44.937 151.559,45.438 151.559,45.745 151.513 C 46.051 151.466,45.800 151.429,45.187 151.429 C 44.574 151.429,44.324 151.466,44.630 151.513 M51.625 151.515 C 51.989 151.560,52.536 151.559,52.841 151.513 C 53.145 151.466,52.847 151.429,52.178 151.431 C 51.510 151.432,51.260 151.470,51.625 151.515 M217.109 157.345 C 217.109 160.132,217.138 161.300,217.173 159.941 C 217.208 158.582,217.208 156.302,217.173 154.875 C 217.138 153.448,217.109 154.559,217.109 157.345 M150.659 153.799 C 150.486 154.134,150.390 154.407,150.446 154.407 C 150.501 154.407,150.688 154.134,150.861 153.799 C 151.034 153.465,151.130 153.191,151.074 153.191 C 151.019 153.191,150.831 153.465,150.659 153.799 M359.372 154.002 C 359.807 154.448,360.209 154.813,360.265 154.813 C 360.320 154.813,360.010 154.448,359.574 154.002 C 359.139 153.556,358.737 153.191,358.682 153.191 C 358.626 153.191,358.937 153.556,359.372 154.002 M187.842 154.268 C 187.842 154.303,188.138 154.599,188.501 154.927 L 189.159 155.522 188.564 154.863 C 188.009 154.249,187.842 154.112,187.842 154.268 M259.264 155.471 L 258.055 156.738 259.321 155.528 C 260.498 154.405,260.680 154.205,260.531 154.205 C 260.499 154.205,259.929 154.775,259.264 155.471 M387.842 155.117 C 387.118 155.496,386.596 155.810,386.683 155.816 C 386.898 155.829,389.260 154.629,389.260 154.506 C 389.260 154.370,389.308 154.349,387.842 155.117 M239.108 155.522 C 239.486 155.912,239.841 156.231,239.897 156.231 C 239.953 156.231,239.689 155.912,239.311 155.522 C 238.933 155.132,238.578 154.813,238.522 154.813 C 238.467 154.813,238.730 155.132,239.108 155.522 M115.491 156.788 L 114.792 157.548 115.552 156.850 C 116.259 156.200,116.405 156.028,116.250 156.028 C 116.217 156.028,115.875 156.370,115.491 156.788 M112.458 160.030 L 110.537 162.006 112.513 160.085 C 114.348 158.301,114.581 158.055,114.434 158.055 C 114.404 158.055,113.515 158.944,112.458 160.030 M352.381 159.372 C 352.986 159.985,353.527 160.486,353.583 160.486 C 353.639 160.486,353.189 159.985,352.584 159.372 C 351.978 158.759,351.437 158.257,351.382 158.257 C 351.326 158.257,351.776 158.759,352.381 159.372 M181.256 159.878 C 182.030 160.659,182.709 161.297,182.765 161.297 C 182.821 161.297,182.233 160.659,181.459 159.878 C 180.685 159.098,180.006 158.460,179.950 158.460 C 179.894 158.460,180.482 159.098,181.256 159.878 M231.206 159.372 C 231.584 159.762,231.939 160.081,231.994 160.081 C 232.050 160.081,231.786 159.762,231.408 159.372 C 231.030 158.982,230.675 158.663,230.620 158.663 C 230.564 158.663,230.828 158.982,231.206 159.372 M198.740 159.015 C 199.329 159.056,200.241 159.056,200.767 159.014 C 201.292 158.972,200.811 158.939,199.696 158.939 C 198.582 158.940,198.151 158.974,198.740 159.015 M372.087 159.015 C 372.728 159.055,373.777 159.055,374.417 159.015 C 375.058 158.975,374.534 158.942,373.252 158.942 C 371.971 158.942,371.446 158.975,372.087 159.015 M248.888 159.416 C 249.196 159.462,249.652 159.461,249.901 159.413 C 250.151 159.365,249.899 159.327,249.341 159.328 C 248.784 159.330,248.580 159.369,248.888 159.416 M266.048 160.638 L 265.350 161.398 266.109 160.700 C 266.817 160.050,266.962 159.878,266.808 159.878 C 266.774 159.878,266.432 160.220,266.048 160.638 M233.435 161.601 C 233.813 161.991,234.168 162.310,234.223 162.310 C 234.279 162.310,234.015 161.991,233.637 161.601 C 233.259 161.211,232.904 160.892,232.849 160.892 C 232.793 160.892,233.057 161.211,233.435 161.601 M109.209 163.070 L 108.511 163.830 109.271 163.131 C 109.978 162.482,110.124 162.310,109.969 162.310 C 109.935 162.310,109.593 162.652,109.209 163.070 M144.478 163.728 C 144.240 164.063,144.091 164.336,144.147 164.336 C 144.202 164.336,144.443 164.063,144.681 163.728 C 144.919 163.394,145.068 163.121,145.012 163.121 C 144.957 163.121,144.716 163.394,144.478 163.728 M236.879 164.031 C 236.879 164.168,238.525 164.987,238.617 164.895 C 238.659 164.853,238.286 164.620,237.787 164.377 C 237.288 164.135,236.879 163.979,236.879 164.031 M197.619 166.713 C 198.037 166.757,198.721 166.757,199.139 166.713 C 199.557 166.669,199.215 166.633,198.379 166.633 C 197.543 166.633,197.201 166.669,197.619 166.713 M200.958 166.712 C 201.318 166.756,201.956 166.757,202.376 166.713 C 202.797 166.669,202.503 166.633,201.722 166.632 C 200.942 166.631,200.598 166.667,200.958 166.712 M369.861 166.711 C 370.169 166.757,370.625 166.756,370.874 166.708 C 371.123 166.660,370.871 166.622,370.314 166.623 C 369.757 166.625,369.553 166.664,369.861 166.711 M375.735 166.710 C 376.041 166.757,376.543 166.757,376.849 166.710 C 377.156 166.664,376.905 166.626,376.292 166.626 C 375.679 166.626,375.428 166.664,375.735 166.710 M245.950 166.911 C 246.202 166.960,246.566 166.958,246.760 166.907 C 246.954 166.856,246.748 166.817,246.302 166.819 C 245.856 166.821,245.698 166.863,245.950 166.911 M251.925 166.908 C 252.120 166.959,252.439 166.959,252.634 166.908 C 252.829 166.857,252.670 166.815,252.280 166.815 C 251.890 166.815,251.730 166.857,251.925 166.908 M248.888 167.116 C 249.196 167.163,249.652 167.161,249.901 167.113 C 250.151 167.065,249.899 167.027,249.341 167.029 C 248.784 167.030,248.580 167.069,248.888 167.116 M138.285 171.682 L 137.690 172.340 138.349 171.745 C 138.711 171.418,139.007 171.122,139.007 171.087 C 139.007 170.930,138.840 171.068,138.285 171.682 M136.667 173.506 L 135.866 174.367 136.727 173.566 C 137.201 173.125,137.589 172.738,137.589 172.705 C 137.589 172.551,137.412 172.705,136.667 173.506 M132.824 177.558 L 129.990 180.446 132.877 177.612 C 135.560 174.979,135.857 174.671,135.712 174.671 C 135.682 174.671,134.383 175.970,132.824 177.558 M90.113 176.014 C 89.984 176.142,90.503 177.305,90.689 177.305 C 90.745 177.305,90.655 177.043,90.489 176.723 C 90.324 176.403,90.246 176.083,90.315 176.014 C 90.385 175.944,90.397 175.887,90.341 175.887 C 90.285 175.887,90.183 175.944,90.113 176.014 M128.662 181.510 L 127.964 182.270 128.723 181.571 C 129.431 180.921,129.576 180.750,129.422 180.750 C 129.388 180.750,129.046 181.092,128.662 181.510 M93.110 182.168 C 93.393 182.725,93.669 183.181,93.725 183.181 C 93.781 183.181,93.595 182.725,93.313 182.168 C 93.031 181.611,92.754 181.155,92.698 181.155 C 92.643 181.155,92.828 181.611,93.110 182.168 M126.938 183.029 L 126.342 183.688 127.001 183.093 C 127.363 182.765,127.660 182.469,127.660 182.434 C 127.660 182.278,127.492 182.416,126.938 183.029 M96.049 187.842 C 96.386 188.511,96.708 189.058,96.764 189.058 C 96.819 189.058,96.589 188.511,96.251 187.842 C 95.914 187.173,95.592 186.626,95.536 186.626 C 95.480 186.626,95.711 187.173,96.049 187.842 M116.819 190.798 L 116.211 191.320 116.869 190.884 C 117.232 190.645,117.528 190.409,117.528 190.361 C 117.528 190.209,117.442 190.262,116.819 190.798 M99.088 193.718 C 99.426 194.387,99.747 194.934,99.803 194.934 C 99.859 194.934,99.628 194.387,99.291 193.718 C 98.953 193.050,98.631 192.503,98.576 192.503 C 98.520 192.503,98.751 193.050,99.088 193.718 M107.143 196.671 C 106.385 197.082,106.431 197.253,107.194 196.859 C 107.528 196.686,107.801 196.502,107.801 196.449 C 107.801 196.318,107.780 196.326,107.143 196.671 M101.654 198.632 C 101.844 199.050,102.077 199.392,102.171 199.392 C 102.412 199.392,104.762 198.192,104.762 198.069 C 104.762 198.013,104.195 198.254,103.502 198.604 C 102.346 199.187,102.224 199.211,102.032 198.893 C 101.537 198.071,101.335 197.931,101.654 198.632 " stroke="none" fill="#e4945e" fill-rule="evenodd"></path><path id="path3" d="M45.643 5.408 C 45.838 5.459,46.158 5.459,46.353 5.408 C 46.548 5.357,46.388 5.316,45.998 5.316 C 45.608 5.316,45.448 5.357,45.643 5.408 M50.507 5.408 C 50.702 5.459,51.021 5.459,51.216 5.408 C 51.411 5.357,51.251 5.316,50.861 5.316 C 50.471 5.316,50.312 5.357,50.507 5.408 M132.928 39.412 C 133.870 40.360,134.687 41.135,134.743 41.135 C 134.799 41.135,134.073 40.360,133.131 39.412 C 132.188 38.465,131.372 37.690,131.316 37.690 C 131.260 37.690,131.986 38.465,132.928 39.412 M183.244 139.108 C 183.245 139.777,183.283 140.026,183.328 139.662 C 183.373 139.298,183.372 138.751,183.326 138.446 C 183.280 138.142,183.243 138.440,183.244 139.108 M233.891 139.108 C 233.893 139.554,233.935 139.713,233.983 139.461 C 234.032 139.209,234.030 138.844,233.979 138.650 C 233.928 138.456,233.889 138.663,233.891 139.108 M392.388 157.447 C 392.388 160.177,392.416 161.294,392.451 159.929 C 392.486 158.564,392.486 156.330,392.451 154.965 C 392.416 153.599,392.388 154.716,392.388 157.447 " stroke="none" fill="#e08c4c" fill-rule="evenodd"></path><path id="path4" d="M45.643 5.408 C 45.838 5.459,46.158 5.459,46.353 5.408 C 46.548 5.357,46.388 5.316,45.998 5.316 C 45.608 5.316,45.448 5.357,45.643 5.408 M50.507 5.408 C 50.702 5.459,51.021 5.459,51.216 5.408 C 51.411 5.357,51.251 5.316,50.861 5.316 C 50.471 5.316,50.312 5.357,50.507 5.408 M132.928 39.412 C 133.870 40.360,134.687 41.135,134.743 41.135 C 134.799 41.135,134.073 40.360,133.131 39.412 C 132.188 38.465,131.372 37.690,131.316 37.690 C 131.260 37.690,131.986 38.465,132.928 39.412 M183.244 139.108 C 183.245 139.777,183.283 140.026,183.328 139.662 C 183.373 139.298,183.372 138.751,183.326 138.446 C 183.280 138.142,183.243 138.440,183.244 139.108 M233.891 139.108 C 233.893 139.554,233.935 139.713,233.983 139.461 C 234.032 139.209,234.030 138.844,233.979 138.650 C 233.928 138.456,233.889 138.663,233.891 139.108 M392.388 157.447 C 392.388 160.177,392.416 161.294,392.451 159.929 C 392.486 158.564,392.486 156.330,392.451 154.965 C 392.416 153.599,392.388 154.716,392.388 157.447 " stroke="none" fill="#e08c4c" fill-rule="evenodd"></path></g></svg>